<svg xmlns="http://www.w3.org/2000/svg" width="1544" height="500" viewBox="0 0 1544 500" role="img" aria-label="Broadside — a broadsheet theme for WordPress — by Shadow Software">
  <defs>
    <radialGradient id="bg" cx="16%" cy="0%" r="120%">
      <stop offset="0%" stop-color="#3a1414"/>
      <stop offset="45%" stop-color="#0b0b0b"/>
      <stop offset="100%" stop-color="#060606"/>
    </radialGradient>
    <linearGradient id="face" x1="0" y1="0" x2="1" y2="1">
      <stop offset="0%" stop-color="#e39191"/>
      <stop offset="52%" stop-color="#b34747"/>
      <stop offset="100%" stop-color="#7d2323"/>
    </linearGradient>
    <filter id="soft" x="-40%" y="-40%" width="180%" height="180%">
      <feGaussianBlur stdDeviation="14"/>
    </filter>
  </defs>

  <rect width="1544" height="500" fill="url(#bg)"/>

  <g stroke="#b34747" stroke-opacity="0.06" fill="none" stroke-width="3.5">
    <path d="M230 90 290 125v70l-60 35-60-35v-70z"/>
    <path d="M1330 320 1390 355v70l-60 35-60-35v-70z"/>
    <path d="M1230 70 1272 94v48l-42 24-42-24V94z"/>
  </g>

  <g transform="translate(120 130) scale(5.6)">
    <path d="M20 1.5 37 11.25v19.5L20 40.5 3 30.75v-19.5z" fill="#b34747" opacity="0.22" filter="url(#soft)"/>
    <path d="M20 1.5 37 11.25v19.5L20 40.5 3 30.75v-19.5z" fill="#0d0d0d" stroke="#b34747" stroke-width="2" stroke-linejoin="round"/>
    <path d="M20 11c-4.4 0-7.8 3.3-7.8 8 0 2.6 1.1 4.7 2.6 6.2-1.7 1.1-2.9 2.7-3.3 4.8h17c-.4-2.1-1.6-3.7-3.3-4.8 1.5-1.5 2.6-3.6 2.6-6.2 0-4.7-3.4-8-7.8-8z" fill="#ededed"/>
    <ellipse cx="20" cy="19.5" rx="3.6" ry="4.2" fill="#0d0d0d"/>
  </g>

  <g transform="translate(480 250)">
    <ellipse cx="0" cy="118" rx="70" ry="14" fill="#000" opacity="0.35"/>
    <g transform="translate(-72 -96)">
      <rect width="144" height="196" rx="4" fill="#f4efe4"/>
      <rect width="144" height="196" rx="4" fill="none" stroke="#7d2323" stroke-width="3"/>
      <!-- nameplate -->
      <rect x="14" y="16" width="116" height="15" rx="2" fill="#1c1a17"/>
      <!-- folio rule -->
      <rect x="14" y="38" width="116" height="2.5" fill="#b34747"/>
      <!-- two columns of type -->
      <g fill="#1c1a17" opacity="0.42">
        <rect x="14" y="50" width="52" height="3.6"/><rect x="14" y="59" width="52" height="3.6"/>
        <rect x="14" y="68" width="52" height="3.6"/><rect x="14" y="77" width="52" height="3.6"/>
        <rect x="14" y="86" width="38" height="3.6"/>
        <rect x="78" y="50" width="52" height="3.6"/><rect x="78" y="59" width="52" height="3.6"/>
        <rect x="78" y="68" width="52" height="3.6"/><rect x="78" y="77" width="52" height="3.6"/>
        <rect x="78" y="86" width="44" height="3.6"/>
      </g>
      <!-- a plate -->
      <rect x="14" y="100" width="116" height="42" rx="2" fill="#b34747" opacity="0.28"/>
      <g fill="#1c1a17" opacity="0.42">
        <rect x="14" y="152" width="116" height="3.6"/><rect x="14" y="161" width="116" height="3.6"/>
        <rect x="14" y="170" width="84" height="3.6"/>
      </g>
    </g>
  </g>

  <g font-family="-apple-system, 'Segoe UI', Roboto, Helvetica, Arial, sans-serif">
    <text x="640" y="228" font-size="86" font-weight="800" letter-spacing="-2" fill="#ffffff">The <tspan fill="#b34747">Broadside</tspan></text>
    <text x="644" y="292" font-size="44" font-weight="600" letter-spacing="1" fill="#c9c9c9">a broadsheet theme for WordPress</text>
    <text x="644" y="352" font-size="27" font-weight="500" letter-spacing="0.5" fill="#7f7f7f">Blackletter masthead · folio rule · three-column lead grid</text>
    <rect x="644" y="378" width="360" height="5" rx="2.5" fill="#b34747"/>
    <text x="1024" y="382" font-size="20" font-weight="600" letter-spacing="0.5" fill="#7d2323">by Shadow Software</text>
  </g>
</svg>
